<svg width="50" height="50" viewBox="0 0 50 50" fill="none" xmlns="http://www.w3.org/2000/svg">
<path d="M31.25 13.5H18.75C15.2982 13.5 12.5 16.2982 12.5 19.75V32.25C12.5 35.7018 15.2982 38.5 18.75 38.5H31.25C34.7018 38.5 37.5 35.7018 37.5 32.25V19.75C37.5 16.2982 34.7018 13.5 31.25 13.5Z" stroke="black" stroke-width="2" stroke-linecap="round" stroke-linejoin="round"/>
<path d="M30 25.2125C30.1543 26.2528 29.9766 27.3153 29.4922 28.2488C29.0078 29.1823 28.2414 29.9393 27.302 30.4121C26.3626 30.8849 25.2981 31.0495 24.2597 30.8824C23.2214 30.7153 22.2622 30.2251 21.5185 29.4815C20.7749 28.7378 20.2847 27.7786 20.1176 26.7403C19.9505 25.702 20.1151 24.6374 20.5879 23.698C21.0607 22.7586 21.8177 21.9922 22.7512 21.5078C23.6847 21.0234 24.7472 20.8457 25.7875 21C26.8487 21.1574 27.8311 21.6518 28.5896 22.4104C29.3482 23.1689 29.8426 24.1514 30 25.2125Z" stroke="black" stroke-width="2" stroke-linecap="round" stroke-linejoin="round"/>
<path d="M31.875 19.125H31.8875" stroke="black" stroke-width="2" stroke-linecap="round" stroke-linejoin="round"/>
<rect x="1" y="1" width="48" height="48" rx="24" stroke="black" stroke-width="2"/>
</svg>
