<svg width="50" height="50" viewBox="0 0 50 50" fill="none" xmlns="http://www.w3.org/2000/svg">
<path d="M21.25 35.75C15 37.625 15 32.625 12.5 32M30 39.5V34.6625C30.0469 34.0664 29.9664 33.4672 29.7638 32.9047C29.5612 32.3422 29.2412 31.8293 28.825 31.4C32.75 30.9625 36.875 29.475 36.875 22.65C36.8747 20.9048 36.2034 19.2265 35 17.9625C35.5698 16.4356 35.5295 14.7479 34.8875 13.25C34.8875 13.25 33.4125 12.8125 30 15.1C27.135 14.3235 24.115 14.3235 21.25 15.1C17.8375 12.8125 16.3625 13.25 16.3625 13.25C15.7205 14.7479 15.6802 16.4356 16.25 17.9625C15.0377 19.2359 14.3657 20.9293 14.375 22.6875C14.375 29.4625 18.5 30.95 22.425 31.4375C22.0137 31.8624 21.6966 32.3692 21.4941 32.9249C21.2917 33.4805 21.2085 34.0726 21.25 34.6625V39.5" stroke="black" stroke-width="2" stroke-linecap="round" stroke-linejoin="round"/>
<rect x="1" y="1" width="48" height="48" rx="24" stroke="black" stroke-width="2"/>
</svg>
